<?xml version="1.0" encoding="utf-8"?>
<!-- Generator: Adobe Illustrator 28.1.0, SVG Export Plug-In . SVG Version: 6.00 Build 0)  -->
<svg version="1.1" id="BACKGROUND" xmlns="http://www.w3.org/2000/svg" xmlns:xlink="http://www.w3.org/1999/xlink" x="0px" y="0px"
	 viewBox="0 0 286.3 100" style="enable-background:new 0 0 286.3 100;" xml:space="preserve">
<style type="text/css">
	.st0{fill:#EF6950;}
	.st1{fill:#9C3030;}
	.st2{fill:#50555C;}
</style>
<g>
	<g>
		<g>
			<path class="st0" d="M73.4,30.7c-2.3-1.5-4.8-2.6-7.3-3.2c-0.3-0.1-0.4-0.3-0.4-0.6l0.5-1.3c0.1-0.3,0.4-0.4,0.7-0.2
				c2.6,1.3,4.9,3,6.8,5c0.2,0.2,0.4,0.4,0.3,0.5l-0.1,0.1C73.9,31,73.7,30.8,73.4,30.7z"/>
		</g>
		<g>
			<path class="st0" d="M70.6,31.8c-1.2-0.9-2.5-1.7-3.8-2.3c-1.4-0.6-2.8-1.1-4.2-1.4c-0.3-0.1-0.5-0.3-0.4-0.6l0.4-1.3
				c0.1-0.3,0.4-0.4,0.8-0.2c1.5,0.6,2.9,1.4,4.2,2.4c1.3,0.9,2.4,2,3.5,3.2c0.2,0.3,0.4,0.5,0.4,0.5l-0.1,0.1
				C71.2,32.2,70.9,32,70.6,31.8z"/>
		</g>
		<path class="st0" d="M66.1,79.8c-0.1-0.9-0.6-1.9-1.5-2.3c-1.3-0.6-2.7,0.2-3.8,1.1c-1.9,1.4-3.6,3.1-5.6,4.4
			c-1.9,1.3-4.2,2.3-6.5,2.3c-0.5-1.3-1.4-2.4-2.6-3.1c-1.4-0.8-3.1-0.9-4.7-0.6c-0.8,0.2-1.6,0.4-2.4,0.7c0.1-0.7,0.1-1.4,0-2.1
			c-0.3-1.3-1.2-2.6-2.5-3c-0.3-0.1-0.6-0.1-1-0.1c0.1-2.9-1.9-5.7-4.8-6.3c0.8-1.4,1-3.1,0.6-4.6c-0.3-1.3-1.1-2.5-2.1-3.4
			c0.8-1.1,1.2-2.4,1.2-3.7c0-1.7-0.9-3.4-2.1-4.7L4.2,49c-1.8,1.2-2.6,3.2-3.1,5.2c-0.4,1.9-0.4,3.9,0.3,5.7
			c0.5,1.1,1.3,2.1,2.2,2.9c-1.1,1.9-1.5,4.1-1,6.2c0.6,2.6,2.3,4.8,4.7,5.9C7.5,75,7.6,75,7.8,75.1C7.1,77.9,8,81.6,10,83.3
			c1.4,1.2,3.3,2,5.4,2.4c1.8,4.5,6.7,7.5,11.6,7.2c0.9-0.1,1.8-0.2,2.7-0.5c1.1,1.5,2.7,2.5,4.5,3.2c3.1,1.2,6.7,1.4,9.7,0
			c0.3-0.1,0.6-0.3,0.8-0.4c4.1-0.2,8.3-1.1,11.9-3.1c3.9-2.1,7.2-5.5,8.9-9.6C65.9,81.7,66.1,80.7,66.1,79.8z"/>
		<path class="st0" d="M55.3,84.5c0.3-3.5,0.9-6.9,1.9-10.2c0.4-1.5,0.9-2.9,1.7-4.2c0.6-1,1.6-2,2.8-2c0.9,0,1.7,0.6,2.2,1.3
			c0.5,0.7,0.7,1.6,0.9,2.5c0.5,2.5,0.7,5,0.5,7.5L55.3,84.5z"/>
		<path class="st0" d="M56.2,92.4c5.7-2.4,10.9-5.6,15.6-9.6c2.3-2,4.7-4.5,4.8-7.5c0-1-0.2-2-0.9-2.6c-1-0.9-2.6-0.5-3.8,0
			c-3.1,1.3-5.8,3.8-7.4,6.7l-6.4,7.4L56.2,92.4"/>
		<path class="st0" d="M61.7,84.6c2.5-2.1,4.7-4.4,6.6-7c0.8-1.1,1.6-2.3,2-3.7c0.4-1.2,0.3-2.8-0.8-3.5c-0.8-0.5-2-0.4-2.8,0.2
			c-0.8,0.6-1.3,1.4-1.8,2.3c-1.1,2.3-1.8,4.8-2,7.3L61.7,84.6z"/>
		<path class="st0" d="M39,80.2c-0.3-1.3-1.2-2.6-2.5-3c-0.3-0.1-0.6-0.1-1-0.1c0,0.5-0.1,1.1-0.3,1.6c-1.4,4.4-7.5,6.2-11.5,7.1
			c-2.3,0.5-5.5,0.6-8.5,0c1.8,4.5,6.7,7.5,11.6,7.2c0.9-0.1,1.8-0.2,2.7-0.5c4-1.2,7.4-4.4,8.9-8.3c0.2-0.6,0.4-1.3,0.5-1.9
			C39.1,81.6,39.2,80.9,39,80.2z"/>
		<path class="st0" d="M30.8,70.7c-0.3,0.5-0.6,1-1.1,1.5c-1.2,1.3-2.9,2-4.5,2.5c-4.9,1.6-10.1,2.2-15.1,1.1
			c-0.8-0.2-1.6-0.4-2.3-0.7C7.1,77.9,8,81.6,10,83.3c1.4,1.2,3.3,2,5.4,2.4c2.9,0.6,6.2,0.6,8.5,0c3.9-0.9,10-2.7,11.5-7.1
			c0.2-0.5,0.3-1.1,0.3-1.6C35.7,74.1,33.7,71.4,30.8,70.7z"/>
		<path class="st0" d="M29.6,55.9c-0.9,0.4-1.9,0.6-2.8,0.7c-7.5,0.6-15.1-1.1-21.5-4.9c-0.8-0.5-1.6-1-2.2-1.6
			c-1,1.2-1.6,2.7-1.9,4.2c-0.4,1.9-0.4,3.9,0.3,5.7c0.5,1.1,1.3,2.1,2.2,2.9c0.8,0.7,1.8,1.2,2.8,1.7c2.2,0.9,4.5,1.3,6.9,1.5
			c3.9,0.4,8,0.4,11.7-0.6c1.2-0.3,2.5-0.8,3.4-1.6c0.3-0.3,0.7-0.6,0.9-1c0.8-1.1,1.2-2.4,1.2-3.7C30.5,57.9,30.2,56.8,29.6,55.9z"
			/>
		<path class="st0" d="M31.5,66.1c-0.3-1.3-1.1-2.5-2.1-3.4c-0.3,0.4-0.6,0.7-0.9,1c-1,0.8-2.2,1.3-3.4,1.6c-3.8,1.1-7.8,1-11.7,0.6
			c-2.4-0.2-4.7-0.6-6.9-1.5c-1-0.4-1.9-1-2.8-1.7c-1.1,1.9-1.5,4.1-1,6.2c0.6,2.6,2.3,4.8,4.7,5.9C7.5,75,7.6,75,7.8,75.1
			c0.7,0.3,1.5,0.5,2.3,0.7c5,1.1,10.3,0.6,15.1-1.1c1.7-0.6,3.3-1.3,4.5-2.5c0.4-0.4,0.8-0.9,1.1-1.5
			C31.6,69.3,31.8,67.7,31.5,66.1z"/>
		<path class="st0" d="M48.7,85.2c-0.5-1.3-1.4-2.4-2.6-3.1c-1.4-0.8-3.1-0.9-4.7-0.6c-0.8,0.2-1.6,0.4-2.4,0.7
			c-0.1,0.7-0.3,1.3-0.5,1.9c-1.5,3.9-4.9,7.1-8.9,8.3c1.1,1.5,2.7,2.5,4.5,3.2c3.1,1.2,6.7,1.4,9.7,0c0.3-0.1,0.6-0.3,0.8-0.4
			c2.6-1.5,4.5-4.3,4.5-7.4C49.2,87,49.1,86.1,48.7,85.2z"/>
		<path class="st0" d="M66.1,79.8c-0.1-0.9-0.6-1.9-1.5-2.3c-1.3-0.6-2.7,0.2-3.8,1.1c-1.9,1.4-3.6,3.1-5.6,4.4
			c-1.9,1.3-4.2,2.3-6.5,2.3c0.3,0.8,0.5,1.8,0.5,2.7c-0.1,3-1.9,5.8-4.5,7.4c4.1-0.2,8.3-1.1,11.9-3.1c3.9-2.1,7.2-5.5,8.9-9.6
			C65.9,81.7,66.1,80.7,66.1,79.8z"/>
		<path class="st0" d="M26.8,20.1c-7.7,1.6-14.7,6.4-19,12.9c-3.3,4.9-5.1,10.8-5.1,16.6c0,0,0.1,0.1,0.1,0.1
			c0.7,0.8,1.6,1.4,2.6,1.9c6.4,3.8,14.1,5.5,21.5,4.9c1.4-0.1,2.8-0.4,3.8-1.3c1-1,1.2-2.5,1.9-3.8c1.3-2.3,4.1-3.2,6.3-4.7
			c4.4-2.9,6.6-8.3,7.3-13.5L26.8,20.1z"/>
		<path class="st0" d="M67.7,24.9c-0.2-0.5-0.7-0.9-1.2-1.2c-6.4-4.6-13.9-7.7-21.7-8.6c-7.6-0.9-15.5,0.4-22.3,3.8
			c3.2,5.9,7.8,11.2,13.2,15.3c2.8,2.1,6.1,3.9,9.5,3.2c5.5-1.1,8.2-8.1,13.7-9.1c1.7-0.3,3.4,0,5.1,0c1,0,2-0.2,2.8-0.8
			C67.7,26.9,68.1,25.8,67.7,24.9z"/>
		<g>
			<g>
				<path class="st0" d="M64.8,24.8c10.8-1.6,21.8-3.3,32.4-6c0.2,0,0.1-0.3,0-0.3c-10.8,0.6-22,2.9-32.5,5.5
					C64.1,24.2,64.4,24.9,64.8,24.8L64.8,24.8z"/>
			</g>
		</g>
		<g>
			<g>
				<path class="st0" d="M64.6,24.6c6.1,0.4,12.4-0.7,18.5-1.2c5.6-0.5,11.1-0.9,16.6-1.7c0.2,0,0.1-0.3,0-0.3
					c-6.2,0-12.4,0.5-18.5,1c-5.5,0.5-11.3,0.6-16.6,1.9C64.3,24.3,64.4,24.6,64.6,24.6L64.6,24.6z"/>
			</g>
		</g>
		<path class="st0" d="M38,58.7c-4-3.9-6.8-9-8-14.4c-0.1-0.6-0.2-1.2,0.1-1.7c0.4-0.6,1.1-0.7,1.8-0.5c0.6,0.2,1.1,0.7,1.6,1.1
			c3.8,3.5,7.4,7.2,10.9,11.1L38,58.7z"/>
		<path class="st0" d="M58,54.8c4.9-7.8,11.4-14.6,18.9-20c-5.7-0.9-11.7-0.2-17,2.2c-2.6,1.2-5.2,2.8-6.8,5.2L58,54.8z"/>
		<path class="st0" d="M80.3,37.4c-4.3,2.9-8.5,5.9-12.6,9.1c-4.5-2.9-9.4-5.3-14.4-7.2c-4,4.4-5.7,10.8-4.3,16.6l-1.1,2.6
			c3.3,3.1,7.9,4.6,12.4,4.4s8.9-2,12.5-4.7c1.3-1,2.6-2.2,3.6-3.5c2-2.7,3-6,3.5-9.3C80.3,42.8,80.5,40.1,80.3,37.4z"/>
		<path class="st0" d="M48.6,50.4c-2.7-1.1-5.8-1.1-8.5,0c-1.4,2.3-2.5,4.7-3.3,7.2c0.7,0.7,1.5,1.3,2.4,1.8
			c3.6,2.1,8.7,3.6,12.7,1.9C52.4,57.9,50.9,53,48.6,50.4z"/>
		<g>
			<path class="st0" d="M26.1,60.9c0.9-0.1,1.9-0.2,2.9-0.2c1,0,1.9,0,2.9,0c1,0,1.9,0.1,2.8,0.2c0.5,0.1,0.9,0.1,1.4,0.2l0.7,0.1
				c0.2,0,0.5,0.1,0.7,0.2c0.1,0.1,0.2,0.1,0.3,0.2c0.1,0.1,0.1,0.2,0.2,0.3c0.1,0.3,0.1,0.7,0.1,0.7l-0.2,0.9
				c0,0.1-0.2,0.4-0.4,0.7c-0.1,0.1-0.2,0.2-0.3,0.2c-0.1,0.1-0.2,0.1-0.3,0.1c-0.2,0-0.5,0-0.7-0.1l-0.7-0.1
				c-0.5-0.1-0.9-0.2-1.4-0.3c-0.9-0.2-1.8-0.4-2.7-0.6c-0.9-0.2-1.8-0.4-2.7-0.7L26,62.1c-0.4-0.1-0.7-0.4-0.7-0.5l0-0.3
				C25.3,61.3,25.7,61,26.1,60.9z"/>
		</g>
		<g>
			<path class="st0" d="M25.8,66.5c1,0,1.9,0.1,2.9,0.1c1,0.1,1.9,0.2,2.9,0.3c1,0.1,1.9,0.2,2.8,0.4c0.5,0.1,0.9,0.2,1.4,0.3
				l0.7,0.2c0.2,0.1,0.5,0.1,0.7,0.3c0.1,0.1,0.2,0.1,0.3,0.2c0.1,0.1,0.1,0.2,0.2,0.3c0.1,0.3,0.1,0.7,0,0.7l-0.2,0.9
				c0,0.1-0.2,0.4-0.4,0.6c-0.1,0.1-0.2,0.1-0.3,0.2c-0.1,0-0.2,0.1-0.3,0.1c-0.2,0-0.5,0-0.7-0.1L35,70.9c-0.5-0.1-0.9-0.2-1.4-0.4
				c-0.9-0.3-1.8-0.6-2.7-0.9c-0.9-0.3-1.8-0.6-2.7-1l-2.7-1c-0.4-0.1-0.7-0.5-0.7-0.6l0.1-0.3C25,66.7,25.4,66.5,25.8,66.5z"/>
		</g>
		<g>
			<path class="st0" d="M30.5,74.9c0.9-0.2,1.8-0.4,2.6-0.5c0.9-0.2,1.8-0.4,2.7-0.6c0.9-0.2,1.8-0.3,2.7-0.5
				c0.4-0.1,0.9-0.1,1.3-0.1l0.7-0.1c0.2,0,0.4,0,0.7,0c0.1,0,0.2,0.1,0.3,0.1c0.1,0.1,0.2,0.1,0.3,0.3c0.2,0.3,0.3,0.6,0.3,0.7
				l0.1,0.9c0,0.1,0,0.4-0.1,0.7c-0.1,0.1-0.1,0.2-0.2,0.3c-0.1,0.1-0.2,0.1-0.3,0.2c-0.2,0.1-0.4,0.1-0.7,0.1l-0.7,0
				c-0.5,0-0.9,0.1-1.4,0.1c-0.9,0-1.8,0-2.7,0c-0.9,0-1.8-0.1-2.7-0.2c-0.9-0.1-1.8-0.2-2.8-0.4c-0.4-0.1-0.7-0.4-0.7-0.4l0-0.3
				C29.7,75.2,30.1,74.9,30.5,74.9z"/>
		</g>
		<g>
			<path class="st0" d="M36.6,62.6l2.7-1.7l2.7-1.7c0.9-0.6,1.8-1.1,2.7-1.6c0.5-0.3,0.9-0.5,1.4-0.8l0.7-0.4
				c0.2-0.1,0.5-0.2,0.7-0.3c0.1,0,0.2,0,0.4,0c0.1,0,0.2,0,0.4,0.1c0.3,0.2,0.5,0.4,0.6,0.5l0.5,0.8c0,0.1,0.1,0.4,0.1,0.7
				c0,0.2-0.1,0.3-0.1,0.4c-0.1,0.1-0.1,0.2-0.2,0.3c-0.2,0.2-0.4,0.3-0.7,0.5l-0.7,0.4c-0.5,0.3-1,0.5-1.4,0.7c-1,0.5-2,0.9-3,1.2
				c-1,0.4-2,0.7-3.1,1c-1,0.3-2.1,0.6-3.1,0.9c-0.5,0.1-0.9,0-1-0.1l-0.1-0.3C35.9,63.3,36.1,62.9,36.6,62.6z"/>
		</g>
		<g>
			<path class="st0" d="M36.3,69.3c0.9-0.4,1.8-0.9,2.6-1.3l2.6-1.3c0.9-0.4,1.7-0.9,2.6-1.3l1.3-0.6l0.6-0.3
				c0.2-0.1,0.4-0.2,0.7-0.3c0.1,0,0.2,0,0.3,0c0.1,0,0.2,0,0.3,0.1c0.3,0.2,0.5,0.5,0.5,0.5l0.4,0.8c0,0.1,0.1,0.4,0.1,0.7
				c0,0.2-0.1,0.2-0.1,0.4c-0.1,0.1-0.1,0.2-0.2,0.3c-0.2,0.2-0.4,0.3-0.6,0.4l-0.7,0.3c-0.5,0.2-0.9,0.4-1.4,0.6
				c-0.9,0.4-1.9,0.7-2.9,1c-1,0.3-2,0.5-3,0.7c-1,0.2-2,0.3-3,0.4c-0.4,0.1-0.9-0.1-0.9-0.2l-0.1-0.3
				C35.7,69.8,35.9,69.4,36.3,69.3z"/>
		</g>
		<g>
			<path class="st0" d="M40.1,75c1-0.6,2-1.1,3.1-1.7c1-0.6,2-1.2,3-1.8l2.9-1.8l1.5-0.9l0.7-0.4c0.2-0.2,0.5-0.3,0.8-0.4
				c0.1,0,0.3-0.1,0.4-0.1c0.1,0,0.3,0,0.4,0.1c0.3,0.1,0.6,0.4,0.6,0.4l0.5,0.8c0,0.1,0.1,0.4,0.1,0.7c0,0.2-0.1,0.3-0.1,0.4
				c-0.1,0.1-0.1,0.2-0.2,0.3c-0.2,0.2-0.5,0.4-0.7,0.5l-0.8,0.5c-0.5,0.3-1,0.6-1.6,0.9c-1.1,0.5-2.2,1-3.3,1.5
				c-1.1,0.4-2.3,0.8-3.4,1.2c-1.1,0.3-2.3,0.6-3.5,0.9c-0.5,0.1-1,0-1.1-0.1l-0.1-0.3C39.3,75.7,39.6,75.2,40.1,75z"/>
		</g>
		<g>
			<path class="st0" d="M50.5,62.7c0,0.2-0.1,0.3-0.1,0.5c-0.1,0.2-0.1,0.3-0.2,0.5c-0.1,0.3-0.3,0.6-0.4,0.9
				c-0.3,0.6-0.7,1.1-1.1,1.6c-0.1,0.1-0.4,0-0.6-0.2l-1-0.9c-0.2-0.2-0.3-0.4-0.2-0.5c0.4-0.4,0.9-0.9,1.3-1.2
				c0.2-0.2,0.5-0.4,0.7-0.6c0.1-0.1,0.3-0.2,0.4-0.3l0.4-0.2c0.1,0,0.1-0.1,0.3,0c0,0,0.1,0,0.1,0c0,0,0.1,0,0.1,0l0.1,0.1
				c0,0,0,0,0,0.1c0,0,0.1,0.1,0.1,0.1C50.5,62.6,50.5,62.6,50.5,62.7z"/>
		</g>
		<g>
			<path class="st0" d="M55.8,65.6c-0.1,0.4-0.2,0.8-0.3,1.2c-0.1,0.4-0.3,0.8-0.5,1.1c-0.3,0.7-0.7,1.4-1.1,2.1
				c-0.1,0.2-0.4,0.2-0.6,0l-1.2-0.7c-0.2-0.1-0.4-0.4-0.3-0.5c0.4-0.7,0.9-1.3,1.5-2c0.3-0.3,0.5-0.6,0.8-0.9
				c0.3-0.3,0.6-0.6,0.9-0.8c0.1-0.1,0.2-0.1,0.3-0.1c0.1,0,0.1,0,0.2,0c0,0,0.1,0,0.1,0l0.1,0.1c0,0,0,0,0,0.1c0,0,0.1,0.1,0.1,0.1
				C55.8,65.4,55.8,65.5,55.8,65.6z"/>
		</g>
		<g>
			<path class="st0" d="M3.7,21c4.7-3.9,10.1-7,15.8-9.2C25.2,9.6,31.2,8.3,37.4,8c6.1-0.3,12.3,0.3,18.3,2c0.7,0.2,1.5,0.4,2.2,0.7
				c0.7,0.2,1.5,0.5,2.2,0.7c1.4,0.5,2.9,1.1,4.3,1.8c1.4,0.7,2.8,1.7,3.9,3c0.1,0.2,0.3,0.3,0.4,0.5c0.1,0.2,0.3,0.4,0.4,0.6
				c0.1,0.2,0.2,0.5,0.3,0.9c0.1,0.3,0,0.7,0,1c-0.1,0.6-0.4,1-0.5,1.4c-0.2,0.4-0.4,0.7-0.6,1.1c-0.8,1.2-1.7,2.2-2.4,2.9
				c-0.7,0.6-1.2,0.9-1.3,0.8l-0.9-1c-0.2-0.2,1.3-1.7,2.7-3.9c0.2-0.3,0.4-0.6,0.6-0.9c0.2-0.3,0.3-0.6,0.3-0.7c0-0.1,0-0.1,0-0.2
				c0-0.1,0-0.1-0.1-0.2c0-0.1-0.1-0.2-0.2-0.3l-0.3-0.4c-0.8-1-1.9-1.9-3.2-2.6c-1.2-0.7-2.6-1.3-4-1.8c-0.7-0.3-1.4-0.5-2.1-0.8
				c-0.7-0.2-1.4-0.5-2.1-0.7C49.5,10,43.4,9.2,37.4,9.4c-6,0.1-12,1.3-17.7,3.3c-5.7,2-11,5-15.8,8.7c-0.3,0.2-0.5,0.4-0.8,0.6
				c-0.2,0.2-0.5,0.4-0.7,0.6c-0.5,0.4-0.9,0.7-1.2,1c-0.3,0.3-0.6,0.5-0.8,0.7c-0.2,0.2-0.3,0.2-0.3,0.2L0,24.4
				c0,0,0.1-0.1,0.3-0.3c0.2-0.2,0.5-0.5,0.8-0.7c0.3-0.3,0.7-0.7,1.2-1.1c0.2-0.2,0.5-0.4,0.7-0.6C3.1,21.5,3.4,21.2,3.7,21z"/>
		</g>
		<g>
			<path class="st0" d="M12.4,5.7c2.9-1.1,5.9-1.9,8.9-2.6c3-0.7,6.1-1.1,9.2-1.4c3.1-0.3,6.2-0.3,9.3-0.1c1.6,0.1,3.1,0.3,4.7,0.5
				c1.5,0.2,3.1,0.5,4.6,0.8c3.1,0.7,6.1,1.6,9,2.8c2.9,1.2,5.7,2.6,8.4,4.2c1.3,0.8,2.6,1.8,3.8,2.9c0.6,0.6,1.2,1.2,1.7,1.8
				c0.3,0.3,0.5,0.7,0.7,1c0.1,0.2,0.2,0.4,0.3,0.6l0.1,0.3l0.1,0.1l0.1,0.2c0.2,0.6,0.2,1.2,0,1.8c-0.2,0.6-0.6,1.1-1.1,1.5
				c-0.1,0.1-0.1,0.1-0.2,0.1l-0.1,0.1l-0.3,0.2l-0.5,0.3c-0.3,0.2-0.7,0.4-1,0.6c-1.4,0.8-2.8,1.5-4.3,2.1c-2.6,1.1-5,1.5-5,1.2
				l-0.4-1.3c-0.1-0.3,2-1,4.5-2c1.4-0.5,2.8-1.2,4.1-1.9c0.3-0.2,0.7-0.4,1-0.5l0.5-0.3l0.5-0.3c0.3-0.1,0.4-0.5,0.3-0.8l0-0.1
				l-0.1-0.1l-0.1-0.2c-0.1-0.2-0.2-0.3-0.2-0.5c-0.2-0.3-0.4-0.6-0.6-0.9c-0.4-0.6-0.9-1.1-1.4-1.6c-1-1-2.2-1.9-3.5-2.8
				c-2.5-1.7-5.2-3.1-8-4.3c-2.8-1.2-5.7-2.2-8.7-2.9c-1.5-0.4-3-0.7-4.5-0.9c-1.5-0.2-3-0.5-4.6-0.6c-3.1-0.3-6.1-0.3-9.2-0.1
				c-3.1,0.2-6.1,0.6-9.1,1.2c-3,0.6-6,1.4-8.9,2.4C11.3,6.5,10.1,7,9.2,7.3c-0.4,0.1-0.7,0.3-1,0.4C8,7.7,7.8,7.8,7.8,7.8L7.8,7.6
				c0,0,0.1-0.1,0.4-0.2c0.3-0.1,0.6-0.3,1-0.4C10,6.6,11.1,6.2,12.4,5.7z"/>
		</g>
		<g>
			<g>
				<path class="st1" d="M67.3,18.4c-0.9,0.7-1.5,1.8-2.2,2.7c-0.7,0.8-1.4,1.6-2.1,2.4c-0.1,0.1,0.1,0.2,0.1,0.1
					c1-0.7,1.8-1.5,2.6-2.4c0.7-0.8,1.5-1.7,1.9-2.7C67.7,18.4,67.4,18.3,67.3,18.4L67.3,18.4z"/>
			</g>
		</g>
		<g>
			<g>
				<path class="st1" d="M68.9,19c-0.8,2.7-3,4.5-4.5,6.9C64.4,26,64.6,26,64.6,26c2-1.7,4.5-4.2,4.8-6.9C69.5,18.8,69,18.7,68.9,19
					L68.9,19z"/>
			</g>
		</g>
		<g>
			<g>
				<path class="st1" d="M62.6,21.4c0.4,0.5,1.1,1,1.8,1c0.1,0,0.1-0.1,0.1-0.1c-0.4-0.6-1.1-1-1.8-1C62.6,21.2,62.5,21.3,62.6,21.4
					L62.6,21.4z"/>
			</g>
		</g>
		<g>
			<g>
				<path class="st1" d="M66.5,23.9c0.1,0.4,0.5,0.6,0.7,0.9c0.2,0.3,0.4,0.7,0.6,1.1c0,0.1,0.1,0,0.1,0c0.1-0.5,0-0.9-0.2-1.3
					c-0.2-0.4-0.6-0.8-1-0.8C66.6,23.7,66.5,23.8,66.5,23.9L66.5,23.9z"/>
			</g>
		</g>
		<g>
			<g>
				<path class="st1" d="M61.9,27.9c-4.7-1.1-9.9,1.8-12.9,5.2c-0.1,0.1,0,0.2,0.1,0.1c1.9-1.7,4.2-3.1,6.6-3.9
					c2-0.7,4.1-0.8,6.1-1.2C62,28.2,62,28,61.9,27.9L61.9,27.9z"/>
			</g>
		</g>
		<g>
			<g>
				<path class="st1" d="M22.3,18.9c3.2,6.7,9.3,14.3,16.4,17.2c0.1,0,0.1-0.1,0.1-0.1c-3.2-2.4-6.4-4.6-9.1-7.6
					c-2.7-3-4.8-6.3-7-9.7C22.5,18.5,22.2,18.7,22.3,18.9L22.3,18.9z"/>
			</g>
		</g>
		<g>
			<g>
				<path class="st1" d="M37.4,61.7c0.1,0.4,0.2,0.8,0.1,1.3c-0.1,0.5-0.3,0.9-0.4,1.3c0,0.1,0.1,0.1,0.1,0.1c0.5-0.5,1-1,1-1.7
					c0-0.5-0.1-1.2-0.6-1.3C37.5,61.4,37.4,61.6,37.4,61.7L37.4,61.7z"/>
			</g>
		</g>
		<g>
			<g>
				<path class="st1" d="M37.3,68.3c0,0.5,0,1.1-0.2,1.6c-0.1,0.3-0.3,0.5-0.4,0.7c-0.1,0.2-0.1,0.3-0.2,0.5c0,0.1,0,0.1,0.1,0.1
					c0.7,0,1-0.5,1.2-1.1c0.2-0.6,0.2-1.3-0.2-1.9C37.6,68.1,37.3,68.1,37.3,68.3L37.3,68.3z"/>
			</g>
		</g>
		<g>
			<g>
				<path class="st1" d="M46.9,64.3c0.4,0.2,0.7,0.5,0.9,0.8c0.1,0.2,0.2,0.3,0.2,0.5c0.1,0.2,0.2,0.3,0.3,0.5c0,0,0.1,0.1,0.1,0
					c0.2-0.5,0.2-0.9-0.1-1.4C48,64.4,47.6,64,47,63.9C46.8,63.8,46.6,64.2,46.9,64.3L46.9,64.3z"/>
			</g>
		</g>
		<g>
			<g>
				<path class="st1" d="M52.3,68.1c0.4,0.3,0.8,0.4,1.1,0.8c0.2,0.4,0.2,0.9,0.4,1.4c0,0.1,0.1,0.1,0.1,0c0.8-0.9-0.4-2.8-1.6-2.6
					C52.1,67.7,52.2,68,52.3,68.1L52.3,68.1z"/>
			</g>
		</g>
		<g>
			<g>
				<path class="st1" d="M41.6,73.8c0,0.4,0,0.8-0.1,1.3c-0.1,0.4-0.2,0.7-0.2,1.1c0,0.1,0.1,0.1,0.2,0.1c0.7-0.6,1.2-1.8,0.5-2.5
					C41.8,73.6,41.6,73.7,41.6,73.8L41.6,73.8z"/>
			</g>
		</g>
		<g>
			<g>
				<path class="st1" d="M53,39.9c5.3,1.9,10.2,3.9,14.8,7.1c0.4,0.3,0.8-0.4,0.4-0.7c-4.5-3.1-9.6-5.7-15-6.8
					C52.8,39.3,52.7,39.8,53,39.9L53,39.9z"/>
			</g>
		</g>
		<g>
			<g>
				<path class="st1" d="M48.5,50.2c0.8,1.9,2,3.4,2.6,5.4c0.6,2,0.6,3.9,0.4,6c0,0.4,0.6,0.5,0.7,0.1c0.6-3.8-0.2-9.2-3.5-11.6
					C48.6,50,48.5,50.2,48.5,50.2L48.5,50.2z"/>
			</g>
		</g>
		<g>
			<g>
				<path class="st1" d="M37.2,57.8c0.4-1.4,0.4-2.7,1.1-4.1c0.7-1.3,1.7-2.2,2.7-3.3c0.2-0.3-0.1-0.6-0.4-0.5
					c-2.4,1.2-4.5,5.2-3.9,7.9C36.7,58.1,37.1,58.1,37.2,57.8L37.2,57.8z"/>
			</g>
		</g>
		<g>
			<g>
				<path class="st1" d="M48.6,50.5c0.4,0.4,1,0.5,1.5,0.7c0.5,0.3,1,0.6,1.5,0.9c0.1,0.1,0.2-0.1,0.1-0.1c-0.4-0.5-0.8-1-1.4-1.3
					c-0.5-0.3-1.2-0.6-1.7-0.5C48.5,50.2,48.5,50.4,48.6,50.5L48.6,50.5z"/>
			</g>
		</g>
		<g>
			<g>
				<path class="st1" d="M40.6,50c-0.9-0.3-1.8,0.2-2.6,0.6c-0.1,0.1,0,0.2,0.1,0.2c0.8-0.2,1.7,0,2.5-0.2
					C40.9,50.4,40.9,50,40.6,50L40.6,50z"/>
			</g>
		</g>
		<g>
			<g>
				<path class="st1" d="M42,37.5c1.9,1,5.3,0.2,6.6-1.6c0-0.1,0-0.1-0.1-0.1c-1,0.4-1.9,0.9-2.9,1.2c-1.2,0.3-2.3,0.1-3.5,0.2
					C41.9,37.1,41.8,37.4,42,37.5L42,37.5z"/>
			</g>
		</g>
		<g>
			<g>
				<path class="st1" d="M27.2,28.9c-1,1.2-0.7,1.6-0.9,3.1c-0.6,4.5-0.7,5.8-4.7,7.1c-1.8,0.6-3.7,0.6-5.6,0.9
					c-4.6,0.6-8.3,1.7-10.4,6.1c-0.1,0.2,0.1,0.3,0.3,0.1c4.8-6.4,10.9-3.9,17.2-6.7c1.4-0.6,2.9-1.6,3.7-3c1.3-2.3-0.4-5,0.9-7.2
					C27.8,29,27.4,28.7,27.2,28.9L27.2,28.9z"/>
			</g>
		</g>
		<g>
			<g>
				<path class="st1" d="M33.4,52.4c-0.5-1.5-1.4-2.8-2-4.3c-0.2-0.6-0.5-1.3-0.6-1.9c-0.1-0.4-0.2-0.9-0.3-1.3
					c-0.5-1-0.3-1.5,0.7-1.7c0.5-0.6,1-0.6,1.4-0.1c0.5,0.4,1.1,0.8,1.6,1.3c0.5,0.5,1.1,0.9,1.6,1.4c1,1,1.9,2.1,3.1,2.9
					c0.1,0.1,0.2-0.1,0.2-0.2c-1.1-2.2-3.5-4.1-5.4-5.5c-0.9-0.7-2.3-1.9-3.5-0.9c-1.1,1-0.4,3.2,0,4.3c0.6,2.1,1.4,4.6,3,6.1
					C33.3,52.7,33.5,52.6,33.4,52.4L33.4,52.4z"/>
			</g>
		</g>
		<g>
			<g>
				<path class="st1" d="M65.5,14.1c0.1,0.3,0.2,0.7,0.3,1c0,0.1,0.1,0.1,0.2,0.1c0.4-0.3,0.4-0.9,0.2-1.3
					C65.9,13.5,65.4,13.7,65.5,14.1L65.5,14.1z"/>
			</g>
		</g>
		<g>
			<g>
				<path class="st1" d="M63.7,12.9c-0.1,0.2-0.1,0.4-0.1,0.7c0,0.1,0,0.2,0.1,0.3c0,0.1,0.1,0.2,0.2,0.3c0,0.1,0.1,0.1,0.2,0
					c0.1-0.1,0.2-0.2,0.2-0.3c0-0.1,0-0.3,0-0.4c0-0.2-0.1-0.5-0.3-0.6C63.9,12.8,63.8,12.8,63.7,12.9L63.7,12.9z"/>
			</g>
		</g>
		<g>
			<g>
				<path class="st1" d="M59.1,11.3c0.1,0.4,0.2,0.7,0.4,1.1c0,0.1,0.1,0.1,0.1,0c0.3-0.4,0.3-0.9,0-1.3C59.5,10.8,59,11,59.1,11.3
					L59.1,11.3z"/>
			</g>
		</g>
		<g>
			<g>
				<path class="st1" d="M61.3,11.8c0,0-0.1,0.1-0.1,0.2c0,0.1,0,0.2,0,0.3c0,0.2,0,0.4,0.1,0.5c0,0.1,0.1,0.1,0.2,0
					c0.2-0.1,0.3-0.3,0.3-0.5c0-0.1,0-0.2,0-0.4c0-0.1,0-0.1-0.1-0.2c0,0-0.1-0.1-0.1-0.1C61.6,11.6,61.4,11.6,61.3,11.8L61.3,11.8z
					"/>
			</g>
		</g>
		<g>
			<g>
				<path class="st1" d="M56.6,10.4c0,0.2,0.1,0.4,0.1,0.6c0.1,0.2,0.2,0.4,0.3,0.4c0,0-0.1-0.1-0.1-0.1c0,0,0,0.1,0.1,0.1
					c0,0.1,0.1,0.1,0.2,0c0.1,0,0.1,0,0,0c0,0,0,0,0.1,0c0.1,0,0.1-0.1,0.1-0.1c0.1-0.1,0.1-0.3,0.1-0.5c-0.1-0.3-0.2-0.5-0.4-0.7
					C56.8,9.9,56.5,10.1,56.6,10.4L56.6,10.4z"/>
			</g>
		</g>
		<g>
			<g>
				<path class="st1" d="M53.9,10c0,0.1,0.1,0.2,0.1,0.3c0,0.1,0.1,0.3,0.2,0.3c0,0-0.1-0.1-0.1-0.1c0,0.1,0,0.1,0.1,0.2
					c0,0,0-0.1,0-0.1c0,0,0,0.1,0,0.1c0,0.1,0.1,0.1,0.1,0.1c0,0,0,0,0.1,0c0.1,0,0,0,0,0c0.1,0,0.1,0,0.2-0.1c0,0-0.1,0-0.1,0.1
					c0.2-0.1,0.3-0.4,0.2-0.6c-0.1-0.2-0.2-0.4-0.5-0.4C53.9,9.5,53.8,9.8,53.9,10L53.9,10z"/>
			</g>
		</g>
		<g>
			<g>
				<path class="st1" d="M51,9.2c0.1,0.2,0.1,0.5,0.3,0.7c0.1,0.1,0.2,0.3,0.4,0.3c0.2-0.1,0.2-0.4,0.2-0.5c0-0.3-0.2-0.5-0.3-0.8
					C51.3,8.5,50.8,8.8,51,9.2L51,9.2z"/>
			</g>
		</g>
		<g>
			<g>
				<path class="st1" d="M47.9,8.6c0.1,0.2,0.2,0.5,0.4,0.7c0.1,0.1,0.3,0,0.4-0.1c0.2-0.4-0.1-0.8-0.4-1C48,8.2,47.8,8.4,47.9,8.6
					L47.9,8.6z"/>
			</g>
		</g>
		<g>
			<g>
				<path class="st1" d="M69.1,19.8c0.5,0.3,1.4-0.5,1.8-0.7c0.4-0.3,1.2-0.9,1.1-1.6c0-0.1-0.1-0.1-0.1-0.1c-0.3,0-0.4,0.2-0.6,0.4
					c-0.3,0.2-0.5,0.5-0.8,0.7c-0.3,0.2-0.6,0.4-0.9,0.6c-0.2,0.1-0.4,0.2-0.4,0.5C69,19.7,69.1,19.8,69.1,19.8L69.1,19.8z"/>
			</g>
		</g>
		<g>
			<g>
				<path class="st1" d="M71.7,14.9c0,0.3-0.1,0.6,0,0.9c0,0,0,0,0.1,0c0.2,0,0.3-0.2,0.4-0.3c0.1-0.2,0.1-0.5,0-0.7
					C72.2,14.5,71.7,14.6,71.7,14.9L71.7,14.9z"/>
			</g>
		</g>
		<g>
			<g>
				<path class="st1" d="M70.1,13.1c0,0.2,0,0.4,0,0.6c0,0.2,0.1,0.3,0.2,0.4c0,0.1,0.1,0.1,0.2,0c0.1-0.1,0.2-0.3,0.2-0.4
					c0-0.2,0-0.4,0-0.6C70.8,12.7,70.1,12.7,70.1,13.1L70.1,13.1z"/>
			</g>
		</g>
		<g>
			<g>
				<path class="st1" d="M68.5,11.5c0,0.1,0,0.3,0,0.4c0,0.2,0.1,0.2,0.2,0.3c0,0,0.1,0,0.1,0c0.2-0.1,0.3-0.2,0.3-0.4
					c0-0.2-0.1-0.4-0.2-0.6C68.8,11.1,68.5,11.3,68.5,11.5L68.5,11.5z"/>
			</g>
		</g>
		<g>
			<g>
				<path class="st1" d="M66.2,9.9c-0.1,0.4-0.2,0.9,0.2,1.1c0.1,0,0.2,0,0.3-0.1c0.1-0.2,0.1-0.3,0.1-0.5c0-0.2,0-0.3-0.1-0.5
					C66.7,9.6,66.3,9.6,66.2,9.9L66.2,9.9z"/>
			</g>
		</g>
		<g>
			<g>
				<path class="st1" d="M63.4,8.5c0,0.1,0,0.3,0.1,0.4c0,0.1,0,0.1,0.1,0.2c0,0,0,0.1,0.1,0.1c0,0,0,0,0,0c0,0,0,0,0,0
					c0,0.1,0.1,0.1,0.2,0c-0.1,0,0,0,0,0c0,0,0.1,0,0.1-0.1C64,9.1,64.1,9,64.1,8.9c0.1-0.2,0-0.4-0.1-0.6C63.8,8,63.3,8.2,63.4,8.5
					L63.4,8.5z"/>
			</g>
		</g>
		<g>
			<g>
				<path class="st1" d="M60.8,7.3c0.1,0.1,0.1,0.3,0.2,0.4C61,7.9,61,8,61.2,8.1c0,0-0.1-0.1-0.1-0.1c0,0.1,0.1,0.1,0.2,0.1
					c0,0,0.1,0,0.1-0.1c0.1-0.1,0.1-0.1,0.1-0.3c0-0.2,0-0.3-0.1-0.5c-0.1-0.2-0.2-0.3-0.3-0.4c-0.1-0.1-0.3,0-0.3,0
					C60.7,7,60.7,7.2,60.8,7.3L60.8,7.3z"/>
			</g>
		</g>
		<g>
			<g>
				<path class="st1" d="M57.9,5.7c-0.1,0.2,0,0.3,0,0.5c0,0.1,0,0.2,0.1,0.2c0,0.1,0.1,0.1,0.2,0.2c0,0.1,0.1,0,0.2,0
					c0-0.1,0.1-0.1,0.1-0.2c0-0.1,0-0.2,0-0.3c0-0.2,0-0.3-0.1-0.5C58.3,5.4,58,5.5,57.9,5.7L57.9,5.7z"/>
			</g>
		</g>
		<g>
			<g>
				<path class="st1" d="M54.9,4.8c0,0,0,0.1,0,0.1C54.9,4.8,54.9,4.8,54.9,4.8c0,0.1,0,0.4,0.1,0.5c0.1,0.2,0.3,0.2,0.5,0.1
					c0.1-0.1,0.2-0.3,0.1-0.5c0-0.2-0.1-0.2-0.2-0.4C55.2,4.3,54.8,4.5,54.9,4.8L54.9,4.8z"/>
			</g>
		</g>
		<g>
			<g>
				<path class="st1" d="M52.5,4.1c0.1,0.2,0.1,0.3,0.3,0.4c0,0-0.1-0.1-0.1-0.1c0.1,0.1,0.1,0.2,0.2,0.2c0.1,0,0.2,0,0.3-0.1
					c0,0,0.1-0.1,0-0.1c0-0.1,0.1-0.2,0.1-0.2c0-0.1,0-0.2-0.1-0.3c-0.1-0.1-0.3-0.2-0.4-0.1C52.5,3.7,52.4,3.9,52.5,4.1L52.5,4.1z"
					/>
			</g>
		</g>
		<g>
			<g>
				<path class="st1" d="M31.1,54C23.9,60.8,10,53.3,3,50c-0.1-0.1-0.3,0.1-0.2,0.2c4.4,3.7,10.6,5.6,16.2,6.4
					c4.1,0.6,9.4,1.2,12.5-2.2C31.8,54.1,31.4,53.7,31.1,54L31.1,54z"/>
			</g>
		</g>
		<g>
			<g>
				<path class="st1" d="M30.2,60c-3.7,9.5-20.4,6.8-26.8,2.1c-0.1-0.1-0.2,0.1-0.2,0.2c3,4.4,11.2,4.8,15.9,4.6
					c4.8-0.2,10.2-1.4,11.6-6.6C30.8,59.8,30.3,59.7,30.2,60L30.2,60z"/>
			</g>
		</g>
		<g>
			<g>
				<path class="st1" d="M31,66.3c0.9,11.8-17.7,10.2-24.6,8c-0.1,0-0.2,0.1-0.1,0.2c6.5,4.5,27.3,3.3,25.2-8.3
					C31.5,65.9,30.9,65.9,31,66.3L31,66.3z"/>
			</g>
		</g>
		<g>
			<g>
				<path class="st1" d="M34.7,74c1.7,11.7-13.6,12.5-21.3,11.1c-0.1,0-0.2,0.1-0.1,0.2c6.9,4,25.5-0.5,21.8-11.3
					C35.1,73.7,34.7,73.8,34.7,74L34.7,74z"/>
			</g>
		</g>
		<g>
			<g>
				<path class="st1" d="M38.6,79.1c0.7,7.2-4.6,12-11.3,13.5c-0.2,0-0.1,0.3,0,0.3c6.4,0.4,13.9-7.3,11.7-13.8
					C39,78.9,38.6,78.9,38.6,79.1L38.6,79.1z"/>
			</g>
		</g>
		<g>
			<g>
				<path class="st1" d="M48.1,84.1c0.1,0.9,0.4,1.6,0.6,2.5c0.4,1.9-0.1,3.8-1.2,5.5c-1.3,2.1-3.1,3.2-5.3,4.2
					c-0.1,0.1-0.1,0.3,0.1,0.3c5.3-0.7,9.4-7.8,6-12.4C48.3,83.9,48.1,83.9,48.1,84.1L48.1,84.1z"/>
			</g>
		</g>
		<g>
			<g>
				<path class="st1" d="M7.4,52.5c-0.8,1-2.2,1.4-3.2,2.1c-0.7,0.5-1.3,1-1.8,1.6c-1,1.5-0.4,3.2,0.7,4.4c0.1,0.1,0.3,0,0.2-0.1
					c-0.3-1.2-0.9-2.4-0.4-3.6c0.4-0.9,1.7-1.6,2.5-2.1c1-0.5,2.1-0.8,2.4-2C8,52.4,7.6,52.3,7.4,52.5L7.4,52.5z"/>
			</g>
		</g>
		<g>
			<g>
				<path class="st1" d="M7,64.6c-0.4,0.9-0.8,1.6-1.5,2.4c-0.4,0.5-0.8,1-1,1.6C4,70,4.3,71.4,5.3,72.4c0.1,0.1,0.3,0,0.3-0.1
					c-0.2-0.8-0.4-1.6-0.5-2.4c0-1.2,0.7-1.9,1.4-2.8c0.6-0.7,1.2-1.5,0.9-2.4C7.3,64.5,7,64.4,7,64.6L7,64.6z"/>
			</g>
		</g>
		<g>
			<g>
				<path class="st1" d="M11.4,76c-0.3,1.8-1.8,2.9-1.7,4.8c0.1,1.1,0.5,2.3,1.7,2.6c0.1,0,0.3-0.1,0.2-0.2
					c-0.6-1.5-1.3-2.5-0.7-4.2c0.4-1.1,1.4-1.9,1-3.1C11.9,75.7,11.5,75.7,11.4,76L11.4,76z"/>
			</g>
		</g>
		<g>
			<g>
				<path class="st1" d="M20.1,86.2c0,1.7-0.5,3.4,0.9,4.8c1.4,1.4,4.1,1.4,5.9,1.5c0.2,0,0.2-0.2,0-0.3c-1.8-0.7-5-0.7-5.9-2.6
					c-0.5-1.1,0.4-2.7-0.7-3.5C20.3,85.9,20.1,86,20.1,86.2L20.1,86.2z"/>
			</g>
		</g>
		<g>
			<g>
				<path class="st1" d="M33.8,90.2c0.5,1.7,0.2,3.3,1.7,4.6c1.4,1.3,3.3,1.5,5.1,1.3c0.2,0,0.2-0.2,0-0.3c-1.7-0.5-3.8-0.7-5-2.2
					c-0.9-1.1-0.4-2.7-1.4-3.7C34,89.8,33.7,90,33.8,90.2L33.8,90.2z"/>
			</g>
		</g>
		<g>
			<g>
				<path class="st1" d="M55,83.4c1.7-0.9,3.3-2,4.8-3.2c0.6-0.5,2.5-2.5,3.2-2.5c0.7,0.6,1.4,1.1,2.1,1.7c-0.1,0.8-0.2,1.6-0.5,2.4
					c-1.4,4.7-4.9,7.9-9,10.3c-0.1,0.1,0,0.3,0.1,0.2c5.1-1.7,10.6-7.7,10.1-13.4c-0.1-1.7-1.1-2.8-2.9-2.1c-1.1,0.4-2,1.4-2.9,2.1
					c-1.7,1.4-3.6,2.6-5.3,4.1C54.6,83.3,54.8,83.5,55,83.4L55,83.4z"/>
			</g>
		</g>
		<g>
			<g>
				<path class="st1" d="M60,79.7c0.7-0.7,1-1.8,1.3-2.7c0.4-1.2,0.6-2.3,0.8-3.6c0-0.1-0.1-0.1-0.2,0c-0.8,2-1.4,4.1-2.3,6.1
					C59.6,79.6,59.8,79.8,60,79.7L60,79.7z"/>
			</g>
		</g>
		<g>
			<g>
				<path class="st1" d="M65.1,77.8c0.7-1.3,0.5-3.3,0.1-4.7c0-0.1-0.1-0.1-0.1,0c-0.1,0.8-0.2,1.5-0.3,2.3c0,0.8-0.2,1.6,0,2.3
					C64.8,77.9,65,77.9,65.1,77.8L65.1,77.8z"/>
			</g>
		</g>
		<g>
			<g>
				<path class="st1" d="M65,77.9c1.2-0.7,2.1-2,3.3-2.8c1.2-0.8,2.5-1.4,3.7-2.2c0.1-0.1,0.1-0.2-0.1-0.2c-1.6,0.2-2.9,0.9-4.2,1.9
					c-1.1,0.8-2.5,1.8-2.9,3.1C64.7,77.8,64.9,77.9,65,77.9L65,77.9z"/>
			</g>
		</g>
		<g>
			<g>
				<path class="st1" d="M64.4,84.5c3-1.4,5.9-4.4,7.2-7.4c0-0.1-0.1-0.2-0.2-0.1c-1.2,1.2-2.3,2.5-3.5,3.7
					c-1.2,1.2-2.6,2.2-3.9,3.4C63.9,84.3,64.1,84.6,64.4,84.5L64.4,84.5z"/>
			</g>
		</g>
		<g>
			<g>
				<path class="st1" d="M48.5,90.8c1.5,0.7,1.6,2.1,3.3,2.3c1,0.1,2.1-0.3,3.1-0.7c2.9-1.4,5.7-3.7,7.4-6.5
					c0.1-0.1-0.1-0.3-0.2-0.2c-2.1,1.9-4,3.9-6.4,5.4c-0.6,0.4-1.6,1-2.3,1.1c-0.4,0-3-1-3.3-1.1c-0.9-0.4-0.4-0.5-1.4-0.6
					C48.4,90.3,48.3,90.7,48.5,90.8L48.5,90.8z"/>
			</g>
		</g>
		<g>
			<g>
				<path class="st1" d="M37.5,70c2-0.3,4-0.9,5.8-1.7c1.6-0.6,3.6-1.3,4.7-2.7c0.1-0.1,0-0.2-0.1-0.2c-1.8,0.4-3.4,1.7-5.1,2.3
					c-1.8,0.7-3.6,1.1-5.4,1.7C37.2,69.6,37.2,70,37.5,70L37.5,70z"/>
			</g>
		</g>
		<g>
			<g>
				<path class="st1" d="M41.8,75.5c1.8,0.1,3.8-1.1,5.4-1.9c2.2-1.1,4.4-2.5,6.4-3.9c0.4-0.3,0-0.9-0.4-0.6
					c-3.4,2.4-7.5,5.1-11.5,6C41.5,75.1,41.6,75.4,41.8,75.5L41.8,75.5z"/>
			</g>
		</g>
		<g>
			<g>
				<path class="st1" d="M35.1,76c0.8,0.5,2,0.3,3,0.2c1.2,0,2.5,0,3.6-0.4c0.2-0.1,0.2-0.4,0-0.4c-1-0.2-2.1,0.1-3.2,0.1
					c-1.1,0.1-2.2,0-3.3,0.1C35,75.6,34.9,75.9,35.1,76L35.1,76z"/>
			</g>
		</g>
		<g>
			<g>
				<path class="st1" d="M31.6,69.2c1,0.3,1.9,0.7,2.9,1c0.8,0.2,1.8,0.6,2.6,0.5c0.2,0,0.3-0.3,0.1-0.4c-0.8-0.4-1.7-0.5-2.6-0.7
					c-1-0.2-2-0.4-2.9-0.7C31.5,68.9,31.4,69.2,31.6,69.2L31.6,69.2z"/>
			</g>
		</g>
		<g>
			<g>
				<path class="st1" d="M29.4,62.4c1.2,0.7,2.8,0.9,4.1,1.2c1.2,0.3,2.6,0.7,3.8,0.4c0.1,0,0.1-0.2,0-0.2c-1.1-0.7-2.6-0.6-3.9-0.9
					c-1.3-0.3-2.6-0.8-3.9-0.9C29.4,62,29.3,62.3,29.4,62.4L29.4,62.4z"/>
			</g>
		</g>
		<g>
			<g>
				<path class="st1" d="M37.8,63c1,0,2-0.5,2.9-0.9c0.7-0.3,1.7-0.5,2.1-1.2c0-0.1,0-0.1-0.1-0.2c-0.8-0.1-1.7,0.5-2.4,0.8
					c-0.9,0.4-1.9,0.7-2.6,1.2C37.7,62.9,37.7,63,37.8,63L37.8,63z"/>
			</g>
		</g>
		<g>
			<g>
				<path class="st1" d="M39.1,59.6c2.2,1.8,6.4,3.4,9.3,2.6c0.1,0,0.1-0.2,0-0.3c-1.4-0.5-2.9-0.4-4.3-0.8
					c-1.6-0.4-3.1-1.2-4.6-1.9C39.2,59.2,38.9,59.4,39.1,59.6L39.1,59.6z"/>
			</g>
		</g>
		<g>
			<g>
				<path class="st1" d="M54,21.5C54,21.5,54,21.5,54,21.5c-0.1,0.2-0.2,0.4-0.3,0.6c0,0,0,0,0,0c0,0-0.1,0.7-0.1,0.7
					c0,0,0.1,0.7,0.1,0.7c0,0.2,0.8,1.5,0.3,0.6c0,0.1,0.4,0.5,0.4,0.5c0,0,0.5,0.4,0.5,0.4c0.1,0,0.6,0.3,0.6,0.3
					c0.1,0,0.3,0,0.4,0.1c0.5,0.1,0.3,0.1,0.7,0c0.5-0.1,0.3,0,0.7-0.2c0.1,0,0.2-0.1,0.3-0.1c0.2-0.1,0.4-0.3,0.6-0.4
					c0,0,0.4-0.5,0.4-0.6c0-0.1,0.3-0.6,0.3-0.7c0.1-0.2,0.1-0.5,0.1-0.7c0,0-0.1-0.7-0.1-0.7c0-0.1,0.1,0.3-0.1-0.3
					c-0.1-0.2-0.2-0.4-0.4-0.6c-0.1-0.2-0.3-0.4-0.5-0.5c-0.3-0.3-0.5-0.4-1-0.5c0,0,0,0,0,0c-0.1,0-0.7-0.1-0.8-0.1c0,0,0,0,0,0
					c-0.2,0-0.5,0.1-0.7,0.1c0,0,0,0,0,0c0,0,0,0,0,0c-0.1,0-0.2,0.1-0.3,0.1c0,0-0.2,0.1-0.4,0.2c0,0,0,0,0,0
					c-0.2,0.1-0.4,0.3-0.6,0.4c0,0,0,0,0,0c-0.1,0.2-0.3,0.4-0.4,0.6c0,0,0,0,0,0c0,0,0,0,0,0c-0.1,0.2-0.2,0.4-0.3,0.7c0,0,0,0,0,0
					c0,0.1,0,0.3-0.1,0.4c0,0.1,0,0.3-0.1,0.4c0.1-0.5,0.3-0.9,0.4-1.4c-0.1,0.2-0.2,0.5-0.3,0.8c-0.1,0.4-0.1,1.2,0,1.6
					c0,0,0,0,0,0c0.1,0.2,0.2,0.5,0.3,0.7c0.1,0.2,0.5,0.6,0.5,0.6c0.2,0.2,0.2,0.3,0.6,0.5c0.5,0.3,1,0.4,1.5,0.4
					c0.3,0,0.6,0,0.8-0.1c0.4-0.1,0.7-0.3,1-0.5c0.3-0.2,0.6-0.5,0.8-0.8c0.1-0.2,0.2-0.5,0.3-0.7c0.1-0.4,0.1-0.8,0.1-1.2
					c0-0.3-0.1-0.5-0.2-0.8c-0.1-0.4-0.3-0.7-0.6-1c-0.2-0.2-0.4-0.3-0.6-0.5c-0.5-0.3-1-0.4-1.5-0.4c-0.5,0-0.8,0.1-1.2,0.3
					c-0.3,0.1-0.5,0.2-0.7,0.4c-0.1,0.1-0.2,0.2-0.3,0.2c0.2-0.2,0.4-0.3,0.6-0.5c0,0,0,0,0,0c0.2-0.1,0.5-0.2,0.7-0.3c0,0,0,0,0,0
					c0.3,0,0.5-0.1,0.8-0.1c0,0,0,0,0,0c0.3,0,0.5,0.1,0.8,0.1c0,0,0,0,0,0c0.2,0.1,0.5,0.2,0.7,0.3c0,0,0,0,0,0
					c0.2,0.1,0.4,0.3,0.6,0.4c0,0,0,0,0,0c0.1,0.2,0.3,0.4,0.4,0.6c0,0,0,0,0,0c0.1,0.5,0.3,0.9,0.4,1.4c0,0,0,0,0,0
					c0,0.2-0.1,0.5-0.1,0.7c0,0,0,0,0-0.1c-0.1,0.2-0.2,0.4-0.3,0.7c0,0,0,0,0,0c-0.1,0.2-0.3,0.4-0.4,0.6c0,0,0,0,0,0
					c-0.2,0.1-0.4,0.3-0.6,0.4c0,0,0,0,0,0c-0.2,0.1-0.4,0.2-0.7,0.3c0,0,0,0,0.1,0c-0.2,0-0.5,0.1-0.7,0.1c0,0,0,0,0,0
					c-0.2,0-0.5-0.1-0.7-0.1c0.1,0,0.2,0,0.4,0.1c0.4,0.1,0.7,0.1,1.1,0c0,0,0,0,0,0c-0.2,0-0.5,0.1-0.7,0.1c0,0,0,0,0,0
					c-0.2,0-0.5-0.1-0.7-0.1c0,0,0,0,0,0c-0.2-0.1-0.4-0.2-0.7-0.3c0,0,0,0,0,0c-0.2-0.1-0.4-0.3-0.6-0.4c0,0,0,0,0,0
					c-0.1-0.2-0.3-0.4-0.4-0.6c0,0,0,0,0,0c-0.1-0.2-0.2-0.4-0.3-0.6c0,0,0,0,0,0c0-0.2-0.1-0.5-0.1-0.7c0,0,0,0,0,0
					c0-0.2,0.1-0.5,0.1-0.7c0,0,0,0,0,0C53.8,21.9,53.9,21.7,54,21.5C54,21.5,54,21.5,54,21.5c0.1-0.1,0.3-0.3,0.4-0.5c0,0,0,0,0,0
					c0.2-0.1,0.4-0.3,0.5-0.4c0,0,0,0,0,0c0.2-0.1,0.4-0.2,0.6-0.3c0,0,0,0,0,0c0.2,0,0.5-0.1,0.7-0.1c0,0,0,0,0,0
					c0.2,0,0.5,0.1,0.7,0.1c0,0,0,0,0,0c0.2,0.1,0.4,0.2,0.6,0.3c0,0,0,0,0,0c-0.3-0.2-0.6-0.3-0.9-0.3c-0.3-0.1-0.7-0.1-1,0
					c-0.2,0.1-0.4,0.2-0.6,0.3C54.5,20.8,54.2,21.1,54,21.5L54,21.5z"/>
			</g>
		</g>
	</g>
	<g>
		<path class="st2" d="M128.5,6.5c-1,0.6-2,1.7-2.8,3.3c-0.8,1.6-1.5,3.3-2,5.4c-0.5,2-0.9,4.2-1.2,6.5c-0.3,2.3-0.4,4.5-0.4,6.6
			c0,1.4,0.1,2.9,0.2,4.6c0.2,1.7,0.5,3.3,1,4.8c0.5,1.5,1.3,2.7,2.2,3.8c1,1,2.2,1.5,3.8,1.5c1.7,0,3.1-0.6,4.3-1.8
			s2.1-2.7,2.8-4.7c0.7-1.9,1.3-4.1,1.6-6.6c0.3-2.4,0.5-4.9,0.5-7.5c0-4-0.4-7.3-1.1-9.8c-0.7-2.5-1.7-4.5-2.9-6
			c-1.2-1.4-2.6-2.4-4.2-3c-1.6-0.5-3.3-0.8-5.1-0.8c-2.1,0-4,0.3-5.8,0.9c-1.8,0.6-3.4,1.5-4.7,2.6c-1.3,1.2-2.4,2.6-3.2,4.3
			c-0.8,1.7-1.1,3.8-1.1,6.1c0,1.2,0.1,2.2,0.2,2.9c0.2,0.7,0.4,1.3,0.6,1.8c0.2,0.4,0.4,0.8,0.7,1c0.2,0.2,0.4,0.3,0.5,0.4
			c-2.2,0-4-0.6-5.3-1.7c-1.3-1.1-1.9-2.9-1.9-5.2c0-2.1,0.5-4.1,1.6-6c1.1-1.9,2.6-3.5,4.5-4.8c1.9-1.4,4.1-2.5,6.7-3.3
			c2.6-0.8,5.3-1.2,8.3-1.2c3.8,0,7,0.7,9.5,2c2.5,1.3,4.6,3.1,6.1,5.2c1.5,2.2,2.6,4.7,3.2,7.5c0.6,2.8,0.9,5.7,0.9,8.7
			c0,2.7-0.3,5.5-0.8,8.3s-1.4,5.3-2.7,7.6c-1.3,2.3-3,4.1-5.1,5.6c-2.1,1.4-4.8,2.1-8,2.1c-2.1,0-4-0.4-5.8-1.1
			c-1.8-0.7-3.4-1.9-4.8-3.5c-1.4-1.6-2.5-3.7-3.3-6.3c-0.8-2.6-1.2-5.8-1.2-9.6c0-2.4,0.2-4.8,0.6-7.3c0.4-2.5,1-4.8,1.8-6.8
			c0.8-2,1.9-3.7,3.3-5.1c1.4-1.3,3.1-2,5.2-2c0.5,0,1,0,1.5,0.1C127.4,6.1,128,6.2,128.5,6.5z"/>
		<path class="st2" d="M164.7,25.7c0.3-0.3,0.6-0.8,0.8-1.4c0.2-0.6,0.3-1.2,0.3-1.8c0-0.9-0.3-1.7-0.9-2.3
			c-0.6-0.6-1.4-0.9-2.5-0.9c-1.1,0-2.1,0.4-2.8,1.2c-0.7,0.8-1.3,1.9-1.8,3.1c-0.5,1.3-0.8,2.7-1,4.2c-0.2,1.5-0.3,3.1-0.3,4.6
			c0,2.2,0.2,4,0.6,5.3c0.4,1.4,0.9,2.4,1.6,3.2c0.7,0.8,1.4,1.3,2.3,1.6c0.9,0.3,1.8,0.4,2.8,0.4c2.2,0,4-0.5,5.6-1.6
			c1.5-1.1,2.8-2.8,3.9-5.1h2.1c-0.5,1.5-1.2,3-2.1,4.4c-0.9,1.4-2,2.6-3.2,3.7c-1.2,1.1-2.5,1.9-3.9,2.5c-1.4,0.6-2.9,0.9-4.4,0.9
			c-1.5,0-2.9-0.2-4.3-0.7c-1.4-0.5-2.7-1.3-3.8-2.5c-1.1-1.1-2-2.6-2.7-4.5c-0.7-1.8-1.1-4.1-1.1-6.8c0-1.7,0.2-3.6,0.5-5.6
			c0.3-2,0.9-3.9,1.7-5.6c0.8-1.7,2-3.2,3.5-4.3c1.5-1.2,3.4-1.7,5.8-1.7c2.6,0,4.6,0.6,6,1.9c1.4,1.3,2,3.1,2,5.6
			c0,1-0.2,1.9-0.6,2.6c-0.4,0.7-1,1.1-1.8,1.1C166.1,27,165.3,26.5,164.7,25.7z"/>
		<path class="st2" d="M192.7,23.9c0,2.9-1.2,5.3-3.6,7.3c-2.4,1.9-5.7,3.1-9.9,3.6c0.2,1.7,0.5,3,0.9,4s1,1.9,1.6,2.5
			c0.6,0.6,1.3,1,2.1,1.2c0.8,0.2,1.6,0.3,2.5,0.3c2,0,3.9-0.5,5.6-1.6c1.7-1,3.1-2.8,4.2-5.2h2c-0.5,1.5-1.3,3-2.2,4.4
			c-1,1.4-2.1,2.6-3.4,3.7c-1.3,1.1-2.7,1.9-4.2,2.5c-1.5,0.6-3,0.9-4.6,0.9c-1.5,0-2.8-0.2-4.2-0.7c-1.3-0.5-2.5-1.3-3.6-2.5
			c-1-1.1-1.9-2.6-2.5-4.4c-0.6-1.8-1-4.1-1-6.7c0-1.7,0.2-3.6,0.6-5.7c0.4-2,1.1-3.9,2-5.7c0.9-1.7,2.2-3.2,3.7-4.3
			c1.5-1.2,3.4-1.7,5.6-1.7c1,0,2,0.1,3,0.3c1,0.2,1.9,0.6,2.6,1.2c0.8,0.6,1.4,1.4,1.9,2.5C192.4,20.9,192.7,22.3,192.7,23.9z
			 M179.1,32.4c2.9-0.5,5.3-1.5,7-3.1c1.7-1.6,2.6-3.6,2.6-6c0-1.6-0.3-2.7-0.8-3.4c-0.5-0.7-1.3-1-2.3-1c-1.1,0-2,0.4-2.8,1.2
			c-0.8,0.8-1.5,1.9-2,3.2c-0.5,1.3-0.9,2.8-1.2,4.3C179.2,29.3,179.1,30.8,179.1,32.4z"/>
		<path class="st2" d="M219,16.1v21.1c0,0.4,0,0.9,0.1,1.6c0,0.6,0.2,1.2,0.3,1.8c0.2,0.6,0.5,1.1,0.8,1.6c0.4,0.4,0.9,0.7,1.6,0.7
			c2,0,3.5-2.3,4.5-6.8h2.3c-0.5,2.6-1,4.7-1.7,6.2c-0.7,1.5-1.5,2.7-2.2,3.4c-0.8,0.8-1.6,1.3-2.4,1.5c-0.8,0.2-1.6,0.3-2.2,0.3
			c-1,0-1.8-0.2-2.5-0.5c-0.7-0.3-1.3-0.8-1.7-1.3c-0.5-0.5-0.9-1.2-1.1-1.9c-0.3-0.7-0.5-1.4-0.7-2.2c-0.6,1.6-1.6,3-3,4.2
			c-1.4,1.2-3.1,1.7-5.1,1.7c-1.2,0-2.5-0.2-3.8-0.7c-1.3-0.5-2.4-1.3-3.4-2.5c-1-1.1-1.8-2.6-2.5-4.4c-0.6-1.8-1-4-1-6.6
			c0-1.9,0.2-3.9,0.7-6c0.4-2.1,1.1-4,2.1-5.7c1-1.7,2.2-3.1,3.7-4.2c1.5-1.1,3.3-1.7,5.4-1.7c0.5,0,1,0.1,1.6,0.2
			c0.6,0.1,1.1,0.3,1.6,0.5c0.5,0.2,1,0.6,1.5,1c0.5,0.4,0.8,0.9,1.1,1.6v-2.9H219z M207.4,42.9c0.6,0,1.3-0.2,1.9-0.5
			c0.6-0.4,1.2-0.8,1.7-1.4c0.5-0.6,0.9-1.3,1.3-2.1c0.3-0.8,0.5-1.7,0.5-2.7V21.9c-0.3-0.7-0.7-1.3-1.3-1.8
			c-0.6-0.6-1.4-0.8-2.3-0.8c-1.3,0-2.5,0.4-3.4,1.3c-1,0.9-1.7,2-2.3,3.4c-0.6,1.3-1,2.8-1.3,4.4c-0.3,1.6-0.4,3.1-0.4,4.6
			c0,3.6,0.5,6.1,1.5,7.7C204.2,42.1,205.6,42.9,207.4,42.9z"/>
		<path class="st2" d="M232.4,16.1v4.7c0.6-1.1,1.3-2,1.9-2.7c0.6-0.7,1.3-1.2,2-1.5c0.7-0.3,1.3-0.5,1.9-0.7
			c0.6-0.1,1.2-0.2,1.7-0.2c1.9,0,3.4,0.4,4.5,1.1c1.1,0.7,2,1.6,2.6,2.7c0.6,1.1,1,2.3,1.1,3.6c0.2,1.3,0.3,2.6,0.3,3.9
			c0,1.4-0.1,3-0.2,5c-0.1,1.9-0.2,3.8-0.2,5.7c0,0.4,0,0.9,0.1,1.5c0,0.6,0.2,1.1,0.4,1.7c0.2,0.5,0.5,1,0.9,1.4
			c0.4,0.4,1,0.6,1.8,0.6c0.3,0,0.6,0,1.1-0.1c0.4-0.1,0.7-0.2,0.9-0.4v0.4c0,1.1-0.1,2-0.4,2.6c-0.3,0.6-0.6,1.1-1.1,1.4
			c-0.4,0.3-0.9,0.5-1.4,0.6c-0.5,0.1-0.9,0.1-1.3,0.1c-1.3,0-2.4-0.3-3.3-0.8c-0.9-0.5-1.7-1.2-2.3-2.1c-0.6-0.9-1-1.9-1.3-3
			c-0.3-1.1-0.4-2.4-0.4-3.6c0-0.4,0-1.1,0-2.1c0-1,0-2.1,0.1-3.3c0-1.2,0-2.3,0.1-3.3c0-1,0-1.8,0-2.2c0-1.3-0.1-2.4-0.3-3.3
			c-0.2-0.9-0.5-1.6-0.9-2c-0.4-0.5-0.8-0.8-1.3-1.1c-0.5-0.2-1-0.3-1.5-0.3c-1.3,0-2.4,0.5-3.3,1.6c-0.9,1-1.7,2.8-2.3,5.2v19.9
			h-6.2V16.1H232.4z"/>
		<path class="st2" d="M255.4,4.4c0-0.5,0.1-1,0.4-1.5c0.2-0.5,0.6-0.8,1-1.1c0.4-0.3,0.8-0.6,1.3-0.7c0.5-0.2,0.9-0.3,1.4-0.3
			c1.6,0,2.7,0.5,3.4,1.4c0.7,1,1,2.1,1,3.5c0,1-0.2,2-0.5,3.1c-0.3,1.1-0.7,2.2-1.2,3.2c-0.5,1-1.1,1.9-1.8,2.7
			c-0.7,0.8-1.4,1.4-2.2,1.8c-0.4-0.2-0.6-0.4-0.7-0.7c-0.1-0.3-0.2-0.5-0.2-0.8c0-0.4,0.1-0.8,0.2-1.3c0.1-0.4,0.3-0.9,0.5-1.3
			c0.2-0.4,0.3-0.8,0.5-1.2c0.1-0.4,0.2-0.8,0.2-1.2c0-0.6-0.1-1.1-0.2-1.3c-0.2-0.3-0.4-0.5-0.6-0.6c-0.2-0.1-0.5-0.2-0.8-0.3
			c-0.3-0.1-0.5-0.2-0.8-0.4c-0.2-0.2-0.4-0.6-0.6-1C255.5,5.9,255.4,5.3,255.4,4.4z"/>
		<path class="st2" d="M281.2,14.2c1,4,1.8,7.2,2.5,9.7c0.7,2.5,1.2,4.6,1.6,6.3c0.4,1.7,0.7,3.2,0.8,4.6c0.2,1.3,0.2,2.8,0.2,4.4
			c0,1.5-0.3,2.8-1,3.9c-0.7,1.1-1.5,1.9-2.5,2.6c-1,0.7-2,1.1-3.2,1.4c-1.1,0.3-2.1,0.4-3,0.4c-1.8,0-3.3-0.3-4.5-0.9
			c-1.2-0.6-2.1-1.3-2.8-2.2c-0.7-0.9-1.2-1.9-1.5-3c-0.3-1.1-0.4-2.1-0.4-3.1c0-1.1,0.2-2,0.7-2.8c0.4-0.8,1-1.4,1.6-1.7
			c1.1-3.1,2.1-6.2,3.2-9.2c1-3,1.7-6.1,2.1-9.2L281.2,14.2z M279.8,38.6c0-1.3-0.1-2.4-0.2-3.4c-0.1-1-0.4-2.1-0.7-3.3
			c-0.3-1.2-0.7-2.7-1.1-4.4c-0.4-1.7-0.9-3.9-1.5-6.6c-0.2,2.3-0.8,4.5-1.5,6.6c-0.8,2.1-1.5,4.3-2.1,6.5c0.4,0.2,0.7,0.6,1,1
			c0.3,0.4,0.4,1,0.4,1.7c0,0.8-0.2,1.4-0.6,1.8c-0.4,0.4-0.9,0.6-1.4,0.6c-0.7,0-1.2-0.3-1.7-0.9c0.3,1.5,0.9,2.6,1.7,3.4
			c0.8,0.8,1.9,1.2,3.3,1.2c1.3,0,2.4-0.3,3.2-1C279.4,41.2,279.8,40.1,279.8,38.6z"/>
	</g>
	<g>
		<path class="st2" d="M105,52.3c0,1.1,0.1,2.1,0.3,2.9c0.2,0.8,0.4,1.5,0.7,2.1c0.2,0.6,0.5,1,0.7,1.3c0.2,0.3,0.4,0.6,0.5,0.8
			c-2.3,0-4.1-0.6-5.5-1.8c-1.3-1.2-2-3-2-5.4c0-2.1,0.5-4,1.6-5.8c1.1-1.8,2.5-3.4,4.3-4.8c1.8-1.3,3.9-2.4,6.3-3.2
			c2.4-0.8,5-1.2,7.7-1.2c2.4,0,4.6,0.3,6.4,0.9c1.8,0.6,3.3,1.4,4.5,2.5c1.2,1,2.1,2.2,2.6,3.5c0.6,1.3,0.9,2.7,0.9,4.1
			c0,1.6-0.4,3.1-1.2,4.7c-0.8,1.6-2,2.9-3.6,3.9c3.2,0.3,5.7,1.6,7.7,3.8c1.9,2.2,2.9,5.3,2.9,9.2c0,1.3-0.1,2.8-0.4,4.6
			c-0.3,1.7-0.8,3.4-1.6,4.9c-0.8,1.6-1.8,2.9-3.2,3.9c-1.4,1.1-3.1,1.6-5.2,1.6c-0.9,0-1.8-0.1-2.6-0.3c-0.8-0.2-1.6-0.6-2.2-1
			c-0.6-0.4-1.1-1-1.5-1.7s-0.6-1.5-0.6-2.3c0-0.2,0-0.6,0.1-1c0-0.4,0.1-0.8,0.2-1.1c0.6,0.9,1.3,1.5,2.2,1.9
			c0.9,0.4,1.7,0.5,2.4,0.5c1,0,1.9-0.3,2.6-0.9c0.7-0.6,1.2-1.3,1.6-2.2c0.4-0.9,0.6-1.9,0.8-3c0.1-1.1,0.2-2.2,0.2-3.3
			c0-3.9-0.8-6.8-2.3-8.5c-1.5-1.7-3.6-2.6-6.3-2.6c-0.5,0-1.1,0-1.9,0.1c-0.7,0-1.5,0.1-2.2,0.2v24.2H113V44l6.8-0.9v14h0.9
			c1.2,0,2.2-0.3,3.2-0.8c1-0.6,1.9-1.3,2.6-2.2c0.7-0.9,1.3-1.9,1.7-3c0.4-1.1,0.6-2.2,0.6-3.3c0-2.4-0.8-4.4-2.5-6
			c-1.7-1.6-4.1-2.3-7.4-2.3c-1.8,0-3.5,0.3-5.2,0.8c-1.7,0.5-3.2,1.3-4.5,2.4c-1.3,1.1-2.4,2.4-3.1,4C105.4,48.3,105,50.1,105,52.3
			z"/>
		<path class="st2" d="M154.5,52.5c1.6,0,3,0.2,4.2,0.7c1.2,0.5,2.1,1.2,2.9,2.1c0.7,0.9,1.3,1.9,1.8,3.1c0.4,1.2,0.8,2.5,1,3.9h0.4
			c1.7,0,3.3-0.4,4.8-1.1c1.4-0.7,2.7-1.6,3.7-2.7l0.9,1.7c-0.8,1.3-2.1,2.4-3.9,3.3c-1.8,0.9-3.7,1.5-5.6,1.8c0,0.4,0,0.8,0,1.2
			c0,0.4,0,0.8,0,1.3c0,5.1-0.9,9.1-2.8,12c-1.9,2.9-4.5,4.3-7.8,4.3c-1.4,0-2.7-0.2-4.1-0.7c-1.4-0.5-2.6-1.3-3.8-2.5
			c-1.1-1.2-2-2.7-2.7-4.5c-0.7-1.8-1-4.1-1-6.8c0-1.8,0.2-3.7,0.6-5.8c0.4-2,1.1-3.9,2-5.6c0.9-1.7,2.2-3.1,3.7-4.2
			C150.2,53,152.2,52.5,154.5,52.5z M155.1,79.5c2.2,0,3.8-1.1,4.8-3.3c1-2.2,1.5-5.2,1.5-9.2c0-0.2,0-0.5,0-0.7
			c0-0.2,0-0.5-0.1-0.7c-1.2-0.1-2.1-0.4-2.6-0.8c-0.5-0.5-0.8-1.2-0.8-2.3c0-1,0.2-1.6,0.6-2c0.4-0.4,1-0.6,1.9-0.7
			c-0.5-1.5-1.1-2.5-1.9-3.1c-0.8-0.6-1.6-0.9-2.6-0.9c-1.3,0-2.4,0.4-3.2,1.3c-0.9,0.9-1.6,1.9-2.2,3.3c-0.6,1.3-1,2.8-1.2,4.4
			c-0.2,1.6-0.4,3.2-0.4,4.7c0,2,0.2,3.7,0.6,5c0.4,1.3,0.8,2.3,1.4,3.1c0.6,0.7,1.2,1.3,1.9,1.6C153.7,79.4,154.4,79.5,155.1,79.5z
			"/>
		<path class="st2" d="M190.1,52.8v21.1c0,0.4,0,0.9,0.1,1.6c0,0.6,0.2,1.2,0.3,1.8c0.2,0.6,0.5,1.1,0.8,1.6s0.9,0.7,1.6,0.7
			c2,0,3.5-2.3,4.5-6.8h2.3c-0.5,2.6-1,4.7-1.7,6.2c-0.7,1.5-1.5,2.7-2.2,3.4c-0.8,0.8-1.6,1.3-2.4,1.5c-0.8,0.2-1.6,0.3-2.2,0.3
			c-1,0-1.8-0.2-2.5-0.5c-0.7-0.3-1.3-0.8-1.7-1.3c-0.5-0.5-0.9-1.2-1.1-1.9c-0.3-0.7-0.5-1.4-0.7-2.2c-0.8,2-1.8,3.5-3.1,4.4
			c-1.3,0.9-2.6,1.4-4,1.4c-1.2,0-2.3-0.2-3.4-0.5c-1.1-0.3-2-0.9-2.8-1.6c-0.8-0.8-1.4-1.8-1.9-3c-0.5-1.2-0.7-2.7-0.7-4.5V52.8
			h6.2v21.1c0,2,0.4,3.5,1.1,4.3s1.6,1.3,2.7,1.3c0.6,0,1.2-0.2,1.7-0.5c0.6-0.3,1.1-0.8,1.6-1.3c0.5-0.6,0.8-1.3,1.1-2.1
			c0.3-0.8,0.4-1.8,0.4-2.9V52.8H190.1z"/>
		<path class="st2" d="M203.6,52.8v4.7c0.6-1.1,1.3-2,1.9-2.7c0.6-0.7,1.3-1.2,2-1.5c0.7-0.3,1.3-0.5,1.9-0.7
			c0.6-0.1,1.2-0.2,1.7-0.2c1.9,0,3.4,0.4,4.5,1.1c1.1,0.7,2,1.6,2.6,2.7c0.6,1.1,1,2.3,1.1,3.6c0.2,1.3,0.3,2.6,0.3,3.8
			c0,0.7,0,1.6-0.1,2.5c0,0.9-0.1,1.8-0.1,2.7c0,0.9-0.1,1.9-0.1,2.8c0,0.9-0.1,1.8-0.1,2.6c0,0.3,0,0.8,0.1,1.4
			c0,0.6,0.1,1.2,0.3,1.8c0.2,0.6,0.4,1.1,0.8,1.5c0.4,0.4,0.9,0.7,1.6,0.7c1,0,1.8-0.5,2.6-1.6c0.8-1.1,1.4-2.8,1.9-5.2h2.3
			c-0.5,2.6-1,4.7-1.7,6.2c-0.7,1.5-1.5,2.7-2.2,3.4c-0.8,0.8-1.6,1.3-2.4,1.5c-0.8,0.2-1.5,0.3-2.2,0.3c-1.3,0-2.4-0.3-3.4-0.8
			c-0.9-0.5-1.7-1.2-2.2-2.1c-0.6-0.9-1-1.9-1.3-3c-0.3-1.2-0.4-2.4-0.4-3.6c0-0.4,0-1.1,0-2.1c0-1,0-2.1,0.1-3.3
			c0-1.2,0-2.3,0.1-3.3c0-1,0-1.8,0-2.2c0-1.3-0.1-2.4-0.3-3.3c-0.2-0.9-0.5-1.6-0.9-2c-0.4-0.5-0.8-0.8-1.3-1.1
			c-0.5-0.2-1-0.3-1.5-0.3c-1.3,0-2.4,0.5-3.3,1.6c-0.9,1-1.7,2.8-2.3,5.2v19.9h-6.2V52.8H203.6z"/>
		<path class="st2" d="M232.6,43.3v9.4h4.8V55h-4.8v18.9c0,0.5,0,1.1,0.1,1.7c0,0.6,0.2,1.2,0.3,1.8c0.2,0.6,0.5,1.1,0.9,1.5
			c0.4,0.4,0.9,0.6,1.6,0.6c1.1,0,2.2-0.6,3.2-1.7c1-1.1,1.8-2.8,2.4-5.1h2.3c-0.7,2.6-1.5,4.7-2.3,6.2c-0.8,1.5-1.6,2.7-2.5,3.4
			c-0.9,0.8-1.7,1.3-2.6,1.5c-0.8,0.2-1.6,0.3-2.3,0.3c-1.5,0-2.7-0.3-3.7-0.8c-1-0.6-1.7-1.3-2.2-2.1c-0.5-0.9-0.9-1.8-1.1-2.9
			c-0.2-1.1-0.3-2.1-0.3-3.1V55h-2.1v-2.2h2.1v-8.6L232.6,43.3z"/>
		<path class="st2" d="M262,52.8v36c0,1.9-0.2,3.6-0.6,4.9c-0.4,1.3-1,2.4-1.7,3.3c-0.7,0.8-1.6,1.5-2.5,1.8c-0.9,0.4-1.9,0.6-3,0.6
			c-2.1,0-3.7-0.6-4.8-1.8c-1.2-1.2-1.7-2.6-1.7-4.3c0-1.1,0.2-2,0.7-2.9c0.5-0.9,1.1-1.7,1.9-2.4c0.8-0.7,1.6-1.4,2.6-1.9
			c1-0.6,2-1,3-1.5v-3.9c-0.8,1.2-1.8,2.1-2.8,2.7c-1.1,0.6-2.1,0.9-3.2,0.9c-1.2,0-2.3-0.2-3.4-0.5c-1.1-0.3-2-0.9-2.8-1.6
			c-0.8-0.8-1.4-1.8-1.9-3c-0.5-1.2-0.7-2.7-0.7-4.5V52.8h6.2v21.1c0,2,0.4,3.5,1.1,4.3c0.7,0.8,1.6,1.3,2.7,1.3
			c0.6,0,1.2-0.2,1.7-0.5c0.6-0.3,1.1-0.8,1.6-1.3c0.5-0.6,0.8-1.3,1.1-2.1c0.3-0.8,0.4-1.8,0.4-2.9V52.8H262z M253.1,96.2
			c1.1,0,1.9-0.4,2.2-1.3c0.4-0.8,0.5-2,0.5-3.4v-4.3c-2.1,1-3.5,1.9-4.4,2.8c-0.9,0.9-1.3,2-1.3,3.1c0,1,0.3,1.7,0.8,2.3
			C251.4,95.9,252.1,96.2,253.1,96.2z"/>
	</g>
</g>
</svg>
